#!OML:ASF H:\Terrain\Patient Classification 1\Terrain2\Thursday\justin.ASF
:FULLY-SPECIFIED
:DEGREES
3432
root -11.1421 17.1303 -0.0561395 538.524 -83.4359 -181.639
lowerback 7.15587 0.192562 0.414004
upperback 4.40317 0.10787 3.312
thorax 0.529072 -0.0558011 3.17572
lowerneck -9.73914 5.14109 -6.47903
upperneck 41.9214 8.2466 -2.95208
head 16.747 1.16781 0.911195
rclavicle 3.97569e-016 9.54166e-015
rhumerus -33.2773 -1.42092 -76.5513
rradius 54.2541
rwrist -13.7671
rhand -24.882 9.71732
rfingers 7.12502
rthumb 1.62552 -20.2562
lclavicle 3.97569e-016 9.54166e-015
lhumerus -45.042 13.7109 76.0281
lradius 28.085
lwrist -4.92027
lhand -9.57099 18.2358
lfingers 7.12502
lthumb 16.3967 47.5627
rfemur -10.9345 -0.853784 20.8483
rtibia 42.2525
rfoot -24.0367 2.7889
rtoes 22.4527
lfemur -13.0285 5.66084 -20.6988
ltibia 41.4272
lfoot -15.1885 -9.81805
ltoes 13.0643
3433
root -11.1797 17.1171 -0.0523507 539.412 -82.8051 -182.098
lowerback 6.75679 0.352341 0.072336
upperback 4.23555 0.311144 3.30366
thorax 0.563815 0.0464076 3.34636
lowerneck -9.71113 5.25658 -6.52286
upperneck 42.0088 8.33342 -2.71829
head 16.7625 1.22065 1.03388
rclavicle -9.14409e-015 -2.38542e-015
rhumerus -33.414 -2.30042 -76.5533
rradius 53.7759
rwrist -13.4387
rhand -25.6751 9.61592
rfingers 7.12502
rthumb 0.859552 -20.3621
lclavicle -9.14409e-015 -2.38542e-015
lhumerus -44.7638 12.6685 76.3747
lradius 28.416
lwrist -5.01804
lhand -9.41628 18.5572
lfingers 7.12502
lthumb 16.5457 47.8718
rfemur -11.0773 -0.927931 20.8681
rtibia 42.2456
rfoot -24.5248 2.07788
rtoes 18.0191
lfemur -13.2406 6.02338 -20.6912
ltibia 41.2948
lfoot -15.5465 -10.2415
ltoes 15.2916
3434
root -11.2151 17.1025 -0.0477217 539.573 -82.1756 -181.873
lowerback 6.50364 0.480588 -0.0668819
upperback 4.06804 0.486408 3.22435
thorax 0.519914 0.139414 3.33179
lowerneck -10.0298 5.39451 -6.53484
upperneck 42.3789 8.45668 -2.38063
head 17.0171 1.2772 1.21388
rclavicle -4.57205e-015 -1.82882e-014
rhumerus -33.5894 -3.17198 -76.6893
rradius 53.4398
rwrist -12.991
rhand -25.8328 9.75717
rfingers 7.12502
rthumb 0.707215 -20.2214
lclavicle -4.57205e-015 -1.82882e-014
lhumerus -44.573 11.9802 76.382
lradius 28.7263
lwrist -5.75165
lhand -9.34365 17.9746
lfingers 7.12502
lthumb 16.6156 47.2833
rfemur -11.1029 -1.09741 20.9964
rtibia 42.197
rfoot -25.1175 0.506979
rtoes 7.97676
lfemur -13.3513 6.44369 -20.5819
ltibia 41.0435
lfoot -15.6984 -10.816
ltoes 18.9098
3435
root -11.2596 17.1179 -0.038045 539.93 -81.5768 -181.993
lowerback 6.35991 0.478159 -0.103608
upperback 3.92061 0.491042 3.1537
thorax 0.447061 0.147223 3.27873
lowerneck -10.0758 5.62678 -6.58934
upperneck 42.5611 8.77598 -2.28221
head 17.1131 1.389 1.31606
rclavicle -8.54774e-015 1.03368e-014
rhumerus -33.7588 -3.40904 -76.8807
rradius 53.1497
rwrist -13.1145
rhand -25.4446 9.89686
rfingers 7.12502
rthumb 1.08221 -20.0801
lclavicle -8.54774e-015 1.03368e-014
lhumerus -44.6635 11.945 76.1295
lradius 29.1074
lwrist -6.84376
lhand -9.87852 17.4866
lfingers 7.12502
lthumb 16.1006 46.8378
rfemur -11.6198 -0.598254 20.9507
rtibia 42.3217
rfoot -25.0688 0.416873
rtoes 6.85499
lfemur -12.9111 7.11003 -20.567
ltibia 40.134
lfoot -15.5446 -11.2387
ltoes 20.8909
3436
root -11.3029 17.1451 -0.0271357 543.545 -80.9973 -185.22
lowerback 5.98705 0.466716 -0.548695
upperback 3.76049 0.469287 2.88882
thorax 0.487969 0.140135 3.25737
lowerneck -10.1145 5.83398 -6.64305
upperneck 42.5417 9.07766 -2.20962
head 17.0935 1.51061 1.40497
rclavicle 3.97569e-015 3.97569e-015
rhumerus -33.8308 -3.56882 -77.1736
rradius 52.7617
rwrist -13.3563
rhand -25.5188 9.97649
rfingers 7.12502
rthumb 1.01055 -20.0009
lclavicle 3.97569e-015 3.97569e-015
lhumerus -44.7018 11.682 75.9381
lradius 29.7982
lwrist -7.02078
lhand -10.1627 17.793
lfingers 7.12502
lthumb 15.8269 47.166
rfemur -12.1274 0.270527 20.2972
rtibia 42.4461
rfoot -25.196 1.236
rtoes 11.8463
lfemur -12.6861 7.4154 -21.1947
ltibia 39.1912
lfoot -15.3434 -11.1656
ltoes 22.4102
3437
root -11.3543 17.3038 -0.0273562 544.155 -80.4979 -185.33
lowerback 5.59612 0.610504 -0.463188
upperback 3.56743 0.679911 2.65575
thorax 0.496183 0.257466 2.95751
lowerneck -10.2291 5.7934 -6.37247
upperneck 42.5269 8.98257 -2.2499
head 17.1337 1.50825 1.33041
rclavicle 1.35174e-014 -1.90833e-014
rhumerus -34.0745 -4.28424 -77.3551
rradius 52.4827
rwrist -13.3393
rhand -25.7761 9.88918
rfingers 7.12502
rthumb 0.76198 -20.0892
lclavicle 1.35174e-014 -1.90833e-014
lhumerus -44.4684 10.7227 75.9949
lradius 30.5026
lwrist -6.46564
lhand -9.44395 17.3215
lfingers 7.12502
lthumb 16.5191 46.6383
rfemur -12.314 5.19524 19.424
rtibia 42.6767
rfoot -24.708 7.62316
rtoes 43.2255
lfemur -12.2999 7.51536 -21.3473
ltibia 38.0845
lfoot -15.4081 -10.7227
ltoes 23.386
3438
root -11.3851 17.2988 -0.0157706 541.824 -80.1992 -182.691
lowerback 5.43063 0.68621 -0.0706984
upperback 3.46033 0.800218 2.73448
thorax 0.475363 0.32472 2.81208
lowerneck -10.2245 5.81443 -6.15008
upperneck 42.3908 9.05116 -2.47782
head 17.0875 1.5518 1.2014
rclavicle 2.5842e-014 2.70347e-014
rhumerus -34.2271 -4.74558 -77.3642
rradius 52.2418
rwrist -13.2399
rhand -25.9395 9.87826
rfingers 7.12502
rthumb 0.604205 -20.1006
lclavicle 2.5842e-014 2.70347e-014
lhumerus -44.3731 9.89846 76.2853
lradius 31.2781
lwrist -5.74016
lhand -9.54723 16.3789
lfingers 7.12502
lthumb 16.4196 45.704
rfemur -12.3534 4.71606 19.7752
rtibia 42.6146
rfoot -24.5724 8.14382
rtoes 43.5535
lfemur -12.2606 7.89484 -20.9914
ltibia 37.7091
lfoot -15.7745 -10.5067
ltoes 23.2128
3439
root -11.4034 17.2303 -0.00711467 542.657 -79.9377 -183.498
lowerback 5.49262 0.340066 -0.868504
upperback 3.47645 0.296311 3.17234
thorax 0.478393 0.0519494 3.74201
lowerneck -10.2168 6.34333 -6.92745
upperneck 42.0487 10.1464 -2.72334
head 16.8548 1.86638 1.39223
rclavicle 1.98785e-014 -1.74931e-014
rhumerus -33.7671 -3.38189 -77.329
rradius 51.7784
rwrist -13.2456
rhand -26.0031 10.2306
rfingers 7.12502
rthumb 0.542748 -19.7485
lclavicle 1.98785e-014 -1.74931e-014
lhumerus -44.8138 11.1593 76.4145
lradius 32.2272
lwrist -5.25405
lhand -11.764 16.7652
lfingers 7.12502
lthumb 14.2844 46.2539
rfemur -12.3304 2.47459 19.8514
rtibia 42.5011
rfoot -25.2745 6.56323
rtoes 35.02
lfemur -12.2538 8.03516 -21.2477
ltibia 37.7705
lfoot -16.3133 -10.1342
ltoes 21.3347
3440
root -11.4214 17.1604 0.00180596 544.172 -79.7028 -184.984
lowerback 5.69764 -0.460258 -2.07461
upperback 3.39057 -0.837705 3.89839
thorax 0.391875 -0.546573 5.24685
lowerneck -10.3185 7.29711 -8.70449
upperneck 41.7861 12.0715 -2.87111
head 16.598 2.36121 1.90591
rclavicle 1.45113e-014 4.77083e-015
rhumerus -33.0808 0.08575 -77.4509
rradius 51.2222
rwrist -13.7215
rhand -25.99 10.6309
rfingers 7.12502
rthumb 0.555401 -19.3481
lclavicle 1.45113e-014 4.77083e-015
lhumerus -45.8403 14.3061 76.1685
lradius 33.2792
lwrist -4.64187
lhand -13.4142 17.4225
lfingers 7.12502
lthumb 12.6939 47.0167
rfemur -12.5343 0.9412 19.8631
rtibia 42.1343
rfoot -25.8184 3.78967
rtoes 22.173
lfemur -12.4672 7.67118 -21.6918
ltibia 38.3133
lfoot -17.2421 -9.43097
ltoes 20.0899
3441
root -11.435 17.1022 0.0198625 544.949 -79.6071 -185.626
lowerback 5.74084 0.308898 -1.30232
upperback 3.37661 0.247069 2.88173
thorax 0.240274 0.0318885 3.688
lowerneck -10.6263 6.57112 -6.93747
upperneck 42.0738 10.4873 -2.48428
head 16.9352 2.0313 1.57158
rclavicle 3.57812e-015 -1.59028e-015
rhumerus -33.8843 -2.89579 -78.1328
rradius 51.0744
rwrist -13.6666
rhand -26.147 11.0378
rfingers 7.12502
rthumb 0.403804 -18.9416
lclavicle 3.57812e-015 -1.59028e-015
lhumerus -44.4695 10.7291 76.1662
lradius 34.015
lwrist -3.10796
lhand -14.2162 17.7197
lfingers 7.12502
lthumb 11.9207 47.3603
rfemur -12.0671 -0.185779 19.7785
rtibia 41.9461
rfoot -26.3037 1.82671
rtoes 10.3746
lfemur -12.8483 7.82212 -21.9548
ltibia 38.86
lfoot -18.0696 -9.29697
ltoes 19.9658
